<svg width="1309" height="189" viewBox="0 0 1309 189" fill="none" xmlns="http://www.w3.org/2000/svg">
<rect y="16" width="404" height="154" fill="url(#paint0_linear)"/>
<path d="M67.2 127.475V48.5H86.1V134.63L70.44 143.675H41.685L26.025 134.63V108.575H44.925V127.475H67.2ZM152.779 48.5L186.529 143H167.899L160.744 122.615H125.374L118.219 143H99.5895L133.339 48.5H152.779ZM142.924 72.26L131.044 106.415H154.939L143.194 72.26H142.924ZM218.906 81.845V143H200.006V48.5H217.691L258.461 109.655H258.731V48.5H277.631V143H259.946L219.176 81.845H218.906ZM374.172 133.955L358.512 143H300.597V48.5H358.512L374.172 57.545V133.955ZM319.497 64.7V126.8H355.272V64.7H319.497Z" fill="white"/>
<path d="M509.05 133.955L493.39 143H435.475V48.5H493.39L509.05 57.545V133.955ZM454.375 64.7V126.8H490.15V64.7H454.375ZM550.879 102.5V126.8H588.544V143H531.979V48.5H588.544V64.7H550.879V86.3H580.444V102.5H550.879ZM684.911 48.5L651.161 143H630.371L596.621 48.5H615.791L640.766 119.915H641.036L665.741 48.5H684.911ZM717.256 102.5V126.8H754.921V143H698.356V48.5H754.921V64.7H717.256V86.3H746.821V102.5H717.256ZM772.448 143V48.5H791.348V126.8H823.613V143H772.448ZM912.072 134.63L896.412 143.675H854.157L838.497 134.63V56.87L854.157 47.825H896.412L912.072 56.87V134.63ZM857.397 64.025V127.475H893.172V64.025H857.397ZM935.001 143V48.5H984.816L1000.48 57.545V99.665L984.816 108.71H953.901V143H935.001ZM953.901 64.7V92.51H981.576V64.7H953.901ZM1038.28 102.5V126.8H1075.94V143H1019.38V48.5H1075.94V64.7H1038.28V86.3H1067.84V102.5H1038.28ZM1165.15 143H1144.36L1124.11 107.36H1112.37V143H1093.47V48.5H1144.63L1160.29 57.545V98.315L1144.63 107.36L1165.15 143ZM1112.37 64.7V91.16H1141.39V64.7H1112.37ZM1183.25 95.075V56.87L1198.91 47.825H1233.06L1248.72 56.87V74.825H1229.82V64.025H1202.15V86.57H1233.06L1248.72 95.615V134.63L1233.06 143.675H1197.56L1181.9 134.63V116.675H1200.8V127.475H1229.82V104.12H1198.91L1183.25 95.075Z" fill="#4F4F4F"/>
<defs>
<linearGradient id="paint0_linear" x1="0" y1="16" x2="401.644" y2="183.887" gradientUnits="userSpaceOnUse">
<stop stop-color="#4ACE81"/>
<stop offset="1" stop-color="#2FD7A4"/>
</linearGradient>
</defs>
</svg>
