<svg width="133" height="103" viewBox="0 0 133 103" fill="none" xmlns="http://www.w3.org/2000/svg">
<path d="M1.392 23.544C1.072 23.192 0.848 22.856 0.72 22.536C0.592 22.184 0.704 21.816 1.056 21.432C1.728 20.824 2.512 20.056 3.408 19.128C4.304 18.168 5.184 17.144 6.048 16.056C6.944 14.968 7.776 13.848 8.544 12.696C9.312 11.544 9.888 10.424 10.272 9.336H3.888C3.344 9.336 2.928 9.128 2.64 8.712C2.384 8.264 2.256 7.8 2.256 7.32V3.768H25.584V7.32C25.584 7.832 25.424 8.296 25.104 8.712C24.784 9.128 24.384 9.336 23.904 9.336H17.52C17.904 10.456 18.448 11.592 19.152 12.744C19.888 13.896 20.672 15.016 21.504 16.104C22.368 17.16 23.232 18.152 24.096 19.08C24.992 19.976 25.792 20.744 26.496 21.384C26.816 21.704 26.976 22.056 26.976 22.44C26.976 22.856 26.784 23.256 26.4 23.64L24.288 25.56C23.936 25.912 23.584 26.088 23.232 26.088C22.88 26.088 22.512 25.896 22.128 25.512C20.656 24.072 19.2 22.552 17.76 20.952C16.32 19.32 15.024 17.64 13.872 15.912C12.72 17.64 11.392 19.336 9.888 21C8.384 22.632 6.88 24.152 5.376 25.56C4.992 25.88 4.64 26.04 4.32 26.04C4.032 26.04 3.696 25.88 3.312 25.56L1.392 23.544ZM12.864 41.112H37.344V44.616C37.344 45.16 37.184 45.64 36.864 46.056C36.576 46.472 36.192 46.68 35.712 46.68H12.864C12.128 46.68 11.472 46.392 10.896 45.816L7.632 43.08C7.024 42.472 6.72 41.8 6.72 41.064V30.024H10.848C11.392 30.024 11.856 30.184 12.24 30.504C12.656 30.792 12.864 31.176 12.864 31.656V41.112ZM37.344 12.792H44.4V16.344C44.4 16.856 44.24 17.32 43.92 17.736C43.632 18.152 43.248 18.36 42.768 18.36H37.344V28.344C37.344 28.824 37.136 29.224 36.72 29.544C36.304 29.832 35.84 29.976 35.328 29.976H31.2V2.52H35.328C35.872 2.52 36.336 2.68 36.72 3C37.136 3.288 37.344 3.672 37.344 4.152V12.792ZM81.2603 2.52C81.8043 2.52 82.2843 2.68 82.7003 3C83.1163 3.288 83.3243 3.672 83.3243 4.152V42.168C83.3243 42.648 83.1163 43.096 82.7003 43.512C82.2523 43.96 81.7883 44.408 81.3083 44.856C80.8603 45.336 80.4123 45.8 79.9643 46.248C79.6123 46.536 79.1963 46.68 78.7163 46.68H77.1803V2.52H81.2603ZM70.3163 5.112V8.664C70.3163 9.144 70.1563 9.608 69.8363 10.056C69.5483 10.472 69.1643 10.68 68.6843 10.68H54.1883V31.512H70.3163V35.064C70.3163 35.608 70.1563 36.088 69.8363 36.504C69.5483 36.888 69.1643 37.08 68.6843 37.08H54.1883C53.4843 37.08 52.8283 36.808 52.2203 36.264L48.9083 32.904C48.3323 32.392 48.0443 31.752 48.0443 30.984V5.112H70.3163ZM90.6165 32.76H120.473V36.312C120.473 36.792 120.313 37.256 119.993 37.704C119.705 38.12 119.337 38.328 118.889 38.328H92.2485C91.7685 38.328 91.3685 38.136 91.0485 37.752C90.7605 37.336 90.6165 36.856 90.6165 36.312V32.76ZM117.689 16.632C117.689 18.328 117.369 19.912 116.729 21.384C116.121 22.856 115.257 24.152 114.137 25.272C113.049 26.36 111.769 27.224 110.297 27.864C108.825 28.472 107.241 28.776 105.545 28.776C103.849 28.776 102.265 28.472 100.793 27.864C99.3205 27.224 98.0245 26.36 96.9045 25.272C95.8165 24.152 94.9525 22.856 94.3125 21.384C93.7045 19.912 93.4005 18.328 93.4005 16.632C93.4005 14.936 93.7045 13.352 94.3125 11.88C94.9525 10.408 95.8165 9.128 96.9045 8.04C98.0245 6.92 99.3205 6.056 100.793 5.448C102.265 4.808 103.849 4.488 105.545 4.488C107.241 4.488 108.825 4.808 110.297 5.448C111.769 6.056 113.049 6.92 114.137 8.04C115.257 9.128 116.121 10.408 116.729 11.88C117.369 13.352 117.689 14.936 117.689 16.632ZM105.545 10.296C104.681 10.296 103.865 10.472 103.097 10.824C102.329 11.144 101.657 11.592 101.081 12.168C100.505 12.744 100.041 13.416 99.6885 14.184C99.3685 14.952 99.2085 15.768 99.2085 16.632C99.2085 17.496 99.3685 18.312 99.6885 19.08C100.041 19.848 100.505 20.52 101.081 21.096C101.657 21.672 102.329 22.136 103.097 22.488C103.865 22.808 104.681 22.968 105.545 22.968C106.409 22.968 107.225 22.808 107.993 22.488C108.793 22.168 109.481 21.72 110.057 21.144C110.633 20.568 111.081 19.896 111.401 19.128C111.753 18.36 111.929 17.528 111.929 16.632C111.929 15.768 111.753 14.952 111.401 14.184C111.081 13.416 110.633 12.744 110.057 12.168C109.481 11.592 108.793 11.144 107.993 10.824C107.225 10.472 106.409 10.296 105.545 10.296ZM126.713 2.52C127.257 2.52 127.737 2.664 128.153 2.952C128.569 3.24 128.777 3.624 128.777 4.104V42.168C128.777 42.68 128.585 43.144 128.201 43.56L125.417 46.296C125.065 46.552 124.649 46.68 124.169 46.68H122.633V2.52H126.713Z" fill="#44D680"/>
<path d="M81.344 60.496H88.4V64.048C88.4 64.56 88.24 65.024 87.92 65.44C87.632 65.856 87.248 66.064 86.768 66.064H81.344V73.552C81.344 74.032 81.136 74.432 80.72 74.752C80.304 75.04 79.84 75.184 79.328 75.184H75.2V51.52H79.328C79.84 51.52 80.304 51.68 80.72 52C81.136 52.288 81.344 52.656 81.344 53.104V60.496ZM81.344 77.296V80.224C81.344 80.736 81.2 81.2 80.912 81.616C80.624 82.032 80.208 82.24 79.664 82.24H56.864V84.016H80.192V86.944C80.192 87.488 80.032 87.952 79.712 88.336C79.424 88.752 79.04 88.96 78.56 88.96H56.864V90.736H81.344V94.192C81.344 94.608 81.2 94.96 80.912 95.248C80.624 95.536 80.272 95.68 79.856 95.68H56.864C56.128 95.68 55.456 95.392 54.848 94.816L51.584 91.552C51.008 90.88 50.72 90.208 50.72 89.536V77.296H81.344ZM62.864 58.336H48.32C47.808 58.336 47.408 58.128 47.12 57.712C46.832 57.264 46.688 56.8 46.688 56.32V52.768H62.912C63.328 52.768 63.68 52.848 63.968 53.008C64.256 53.136 64.56 53.344 64.88 53.632L68.144 56.944C68.496 57.264 68.72 57.568 68.816 57.856C68.944 58.112 69.008 58.464 69.008 58.912V71.632C69.008 72.176 68.8 72.592 68.384 72.88C67.968 73.136 67.504 73.264 66.992 73.264H62.864V58.336ZM125.932 51.52C126.476 51.52 126.956 51.68 127.372 52C127.788 52.288 127.996 52.672 127.996 53.152V91.168C127.996 91.648 127.788 92.096 127.372 92.512L124.636 95.296C124.316 95.552 123.916 95.68 123.436 95.68H121.852V51.52H125.932ZM90.7963 68.56C90.7963 66.736 91.1003 64.96 91.7083 63.232C92.3483 61.472 93.2283 59.92 94.3483 58.576C95.5003 57.2 96.8763 56.112 98.4763 55.312C100.076 54.48 101.852 54.064 103.804 54.064C105.756 54.064 107.532 54.48 109.132 55.312C110.732 56.112 112.092 57.2 113.212 58.576C114.364 59.92 115.244 61.472 115.852 63.232C116.492 64.96 116.812 66.736 116.812 68.56C116.812 70.384 116.492 72.176 115.852 73.936C115.244 75.664 114.364 77.216 113.212 78.592C112.092 79.936 110.732 81.024 109.132 81.856C107.532 82.656 105.756 83.056 103.804 83.056C101.852 83.056 100.076 82.656 98.4763 81.856C96.8763 81.024 95.5003 79.936 94.3483 78.592C93.2283 77.216 92.3483 75.664 91.7083 73.936C91.1003 72.176 90.7963 70.384 90.7963 68.56ZM103.804 77.344C104.796 77.344 105.724 77.12 106.588 76.672C107.452 76.192 108.204 75.568 108.844 74.8C109.516 74 110.044 73.072 110.428 72.016C110.812 70.928 111.004 69.776 111.004 68.56C111.004 67.504 110.844 66.464 110.524 65.44C110.204 64.384 109.724 63.44 109.084 62.608C108.476 61.744 107.724 61.056 106.828 60.544C105.932 60.032 104.924 59.776 103.804 59.776C102.652 59.776 101.628 60.032 100.732 60.544C99.8363 61.056 99.0683 61.744 98.4283 62.608C97.8203 63.44 97.3563 64.384 97.0363 65.44C96.7163 66.464 96.5563 67.504 96.5563 68.56C96.5563 69.616 96.7163 70.672 97.0363 71.728C97.3563 72.752 97.8203 73.696 98.4283 74.56C99.0683 75.392 99.8363 76.064 100.732 76.576C101.628 77.088 102.652 77.344 103.804 77.344Z" fill="#4F4F4F"/>
</svg>
