<svg width="36" height="36" viewBox="0 0 36 36" fill="none" xmlns="http://www.w3.org/2000/svg">
<circle cx="18" cy="18" r="18" fill="#3CCB78"/>
<path d="M24.5062 26.5252L26.4888 24.555L24.9061 22.9625L22.9236 24.9327L24.5062 26.5252Z" fill="#334A5E"/>
<path d="M24.4361 11.6519C20.9079 8.12371 15.2261 8.12371 11.6978 11.6061C8.1696 15.0885 8.1696 20.8162 11.652 24.3444C15.1344 27.8727 20.8621 27.8727 24.3903 24.3903C27.9185 20.9079 27.9186 15.1802 24.4361 11.6519Z" fill="#40596B"/>
<path d="M13.0267 22.9698C10.2774 20.2205 10.2774 15.7301 13.0726 12.9808C15.8218 10.2315 20.3123 10.2315 23.0616 13.0266C25.8109 15.7759 25.8109 20.2664 23.0158 23.0157C20.2665 25.7649 15.776 25.7649 13.0267 22.9698Z" fill="#F2F2F2"/>
<path d="M22.2825 22.2825C19.9456 24.5736 16.0966 24.5736 13.8056 22.2367C11.4687 19.8998 11.4687 16.0966 13.8514 13.7597C16.2341 11.4228 19.9457 11.4228 22.2825 13.7597C24.6194 16.1424 24.6194 19.9456 22.2825 22.2825Z" fill="#54C0EB"/>
<path d="M20.8162 20.8162C19.3041 22.3283 16.8297 22.3283 15.2718 20.8162C13.7597 19.3041 13.7597 16.8297 15.2718 15.2718C16.7839 13.7597 19.2582 13.7597 20.8162 15.2718C22.3741 16.8297 22.3741 19.3041 20.8162 20.8162Z" fill="#40596B"/>
<path d="M30.1636 26.4064L27.3227 23.5655C27.1394 23.3822 26.8645 23.3822 26.6812 23.5655L23.5196 26.7272C23.3363 26.9105 23.3363 27.1854 23.5196 27.3687L26.3605 30.2096C27.4143 31.2635 29.1097 31.2635 30.1636 30.2096C31.2175 29.1557 31.2175 27.4603 30.1636 26.4064Z" fill="#FF7058"/>
<path d="M16.2342 16.6465C16.9175 16.6465 17.4714 16.0926 17.4714 15.4093C17.4714 14.726 16.9175 14.1721 16.2342 14.1721C15.551 14.1721 14.9971 14.726 14.9971 15.4093C14.9971 16.0926 15.551 16.6465 16.2342 16.6465Z" fill="white"/>
<path d="M17.8838 17.7462C18.2887 17.7462 18.6169 17.4179 18.6169 17.013C18.6169 16.6081 18.2887 16.2799 17.8838 16.2799C17.4789 16.2799 17.1506 16.6081 17.1506 17.013C17.1506 17.4179 17.4789 17.7462 17.8838 17.7462Z" fill="white"/>
</svg>
